<?xml version="1.0" encoding="utf-8"?>
<!-- Generator: Adobe Illustrator 16.0.0, SVG Export Plug-In . SVG Version: 6.00 Build 0)  -->
<!DOCTYPE svg PUBLIC "-//W3C//DTD SVG 1.1//EN" "http://www.w3.org/Graphics/SVG/1.1/DTD/svg11.dtd">
<svg version="1.1" id="Layer_2" xmlns="http://www.w3.org/2000/svg" xmlns:xlink="http://www.w3.org/1999/xlink" x="0px" y="0px"
	 width="612px" height="612px" viewBox="0 0 612 612" enable-background="new 0 0 612 612" xml:space="preserve">
<rect x="-0.5" fill="#FFFFFF" width="612" height="612"/>
<path d="M548.429,159.166H440.061L415.13,92.408c-3.032-8.12-10.894-13.576-19.562-13.576H215.768
	c-8.581,0-16.422,5.378-19.513,13.385l-25.834,66.948H62.571c-23.159,0-42,18.841-42,42V478.5c0,23.159,18.841,42,42,42h485.857
	c23.159,0,42-18.841,42-42V201.166C590.429,178.007,571.588,159.166,548.429,159.166z M554.429,478.5c0,3.252-2.748,6-6,6H62.571
	c-3.252,0-6-2.748-6-6V201.166c0-3.252,2.748-6,6-6h120.197c7.655,0,14.177-4.787,16.78-11.524l0.012,0.005l26.555-68.814h158.961
	l25.63,68.631l0.016-0.006c2.554,6.833,9.122,11.708,16.847,11.708h120.86c3.252,0,6,2.748,6,6V478.5z"/>
<path d="M306.521,445.766c-65.73,0-119.206-53.476-119.206-119.205c0-65.73,53.476-119.206,119.206-119.206
	c65.729,0,119.204,53.476,119.204,119.206C425.726,392.29,372.251,445.766,306.521,445.766z M306.521,243.355
	c-45.88,0-83.206,37.326-83.206,83.206s37.326,83.205,83.206,83.205c45.879,0,83.204-37.325,83.204-83.205
	S352.4,243.355,306.521,243.355z"/>
</svg>
